<svg xmlns="http://www.w3.org/2000/svg" width="42" height="42" fill="none"><path d="M10.427 13.193h2.452v1.863h-1.24c-1.24 0-1.24.621-1.24 1.242v5.136c0 .945.894 1.072.894 1.072h1.586v1.863h-2.452a1.89 1.89 0 01-1.889-1.89v-7.395a1.89 1.89 0 011.89-1.89z" fill="#ffac33"/><path d="M12.259 13.193h10.54v12.888c0 .765-.624 1.39-1.388 1.39h-7.764a1.394 1.394 0 01-1.388-1.39z" fill="#ffac33"/><path d="M14.429 25.609a.62.62 0 00.62-.62v-6.83a.62.62 0 10-1.24 0v6.83c0 .343.277.62.62.62zm3.1 0a.62.62 0 00.62-.62v-6.83a.62.62 0 10-1.24 0v6.83c0 .343.277.62.62.62zm-5.27-10.253v-2.163h10.54v3.392c-.202.074-.419.122-.647.122-.79 0-1.466-.488-1.748-1.178a.933.933 0 01-1.384-.171c-.336.526-.92.876-1.59.876a1.878 1.878 0 01-1.499-.753 1.18 1.18 0 01-1.097.753c-.448 0-.832-.253-1.033-.621a1.402 1.402 0 01-.62.148c-.612 0-.922-.405-.922-.405z" fill="#f4900c"/><path d="M14.119 10.09h8.06c1.24 0 1.86.62 1.86 1.862v1.92a1.888 1.888 0 01-3.635.713.937.937 0 01-.613.232.94.94 0 01-.771-.403c-.336.525-.92.875-1.59.875a1.878 1.878 0 01-1.499-.753c-.172.44-.597.753-1.097.753a1.17 1.17 0 01-1.005-.582.93.93 0 01-1.57-.672v-2.083c0-1.241.62-1.862 1.86-1.862z" fill="#e1e8ed"/><path d="M29.716 13.924a.696.696 0 01-.491-1.188l2.466-2.468a.694.694 0 11.982.984l-2.466 2.468a.69.69 0 01-.491.204zm-2.892-1.18a.697.697 0 01-.656-.926l.674-1.928a.695.695 0 111.311.46l-.674 1.927a.695.695 0 01-.655.467zm4.266 4.014a.695.695 0 01-.231-1.35l1.732-.613a.696.696 0 01.462 1.311l-1.732.612a.694.694 0 01-.231.04z" fill="#fa743e"/><path d="M31.65 20.146h-2.452v1.863h1.24c1.24 0 1.24.62 1.24 1.242v5.136c0 .944-.894 1.072-.894 1.072h-1.586v1.862h2.452a1.89 1.89 0 001.888-1.89v-7.394a1.89 1.89 0 00-1.888-1.89z" fill="#ffac33"/><path d="M29.818 20.146h-10.54v12.888c0 .765.624 1.39 1.388 1.39h7.763c.764 0 1.39-.625 1.39-1.39z" fill="#ffcc4d"/><path d="M21.447 32.562a.62.62 0 01-.62-.621v-6.828a.62.62 0 111.24 0v6.828a.62.62 0 01-.62.62zm6.201 0a.62.62 0 01-.62-.621v-6.828a.62.62 0 111.24 0v6.828a.62.62 0 01-.62.62zm-3.1 0a.62.62 0 01-.62-.621v-6.828a.62.62 0 111.24 0v6.828a.62.62 0 01-.62.62z" fill="#f4900c"/><path d="M29.818 22.31v-2.164h-10.54v3.392c.202.074.419.121.647.121.79 0 1.466-.487 1.748-1.177a.933.933 0 001.384-.171c.336.525.92.876 1.589.876.614 0 1.155-.299 1.5-.753.172.44.597.753 1.097.753.448 0 .832-.253 1.033-.621.187.092.396.148.62.148.612 0 .922-.405.922-.405z" fill="#ffac33"/><path d="M27.958 17.043h-8.06c-1.24 0-1.861.62-1.861 1.862v1.92a1.888 1.888 0 003.635.713.937.937 0 00.614.232c.32 0 .6-.16.771-.404.336.525.92.876 1.59.876.613 0 1.154-.298 1.498-.753.173.44.598.753 1.098.753.43 0 .798-.237 1.004-.582a.93.93 0 001.57-.672v-2.083c.001-1.242-.619-1.862-1.86-1.862z" fill="#eee"/></svg>